#N canvas 579 88 640 509 10;
#X obj 52 91 mrpeach/unpackOSC;
#X obj 52 52 mrpeach/udpreceive 9000;
#X obj 52 133 mrpeach/routeOSC /wii;
#X obj 51 165 mrpeach/routeOSC /1 /2 /3 /4;
#N canvas 988 507 478 407 unpackButtons 0;
#X obj 22 136 sel 1;
#X obj 89 132 sel 1;
#X obj 166 136 loadbang;
#X msg 175 178 0;
#X obj 75 253 outlet;
#X obj 22 7 inlet;
#X msg 22 163 dec;
#X msg 89 166 inc;
#X obj 22 34 mrpeach/routeOSC /button;
#X obj 22 68 mrpeach/routeOSC /Minus /Plus;
#X obj 22 109 unpack f;
#X obj 89 105 unpack f;
#X obj 27 209 counter 1 128;
#X connect 0 0 6 0;
#X connect 1 0 7 0;
#X connect 2 0 3 0;
#X connect 3 0 12 0;
#X connect 5 0 8 0;
#X connect 6 0 12 0;
#X connect 7 0 12 0;
#X connect 8 0 9 0;
#X connect 9 0 10 0;
#X connect 9 1 11 0;
#X connect 10 0 0 0;
#X connect 11 0 1 0;
#X connect 12 0 4 0;
#X restore 51 238 pd unpackButtons;
#N canvas 905 481 478 407 unpackButtons 0;
#X obj 17 135 sel 1;
#X obj 84 130 sel 1;
#X obj 162 137 loadbang;
#X msg 171 177 0;
#X obj 71 252 outlet;
#X obj 21 5 inlet;
#X msg 19 165 dec;
#X msg 85 168 inc;
#X obj 21 33 mrpeach/routeOSC /button;
#X obj 22 68 mrpeach/routeOSC /Minus /Plus;
#X obj 18 108 unpack f;
#X obj 85 104 unpack f;
#X obj 23 208 counter 1 128;
#X connect 0 0 6 0;
#X connect 1 0 7 0;
#X connect 2 0 3 0;
#X connect 3 0 12 0;
#X connect 5 0 8 0;
#X connect 6 0 12 0;
#X connect 7 0 12 0;
#X connect 8 0 9 0;
#X connect 9 0 10 0;
#X connect 9 1 11 0;
#X connect 10 0 0 0;
#X connect 11 0 1 0;
#X connect 12 0 4 0;
#X restore 164 238 pd unpackButtons;
#N canvas 905 481 478 407 unpackButtons 0;
#X obj 17 135 sel 1;
#X obj 84 130 sel 1;
#X obj 162 137 loadbang;
#X msg 171 177 0;
#X obj 71 252 outlet;
#X obj 21 5 inlet;
#X msg 19 165 dec;
#X msg 85 168 inc;
#X obj 21 33 mrpeach/routeOSC /button;
#X obj 22 68 mrpeach/routeOSC /Minus /Plus;
#X obj 18 108 unpack f;
#X obj 85 104 unpack f;
#X obj 23 208 counter 1 128;
#X connect 0 0 6 0;
#X connect 1 0 7 0;
#X connect 2 0 3 0;
#X connect 3 0 12 0;
#X connect 5 0 8 0;
#X connect 6 0 12 0;
#X connect 7 0 12 0;
#X connect 8 0 9 0;
#X connect 9 0 10 0;
#X connect 9 1 11 0;
#X connect 10 0 0 0;
#X connect 11 0 1 0;
#X connect 12 0 4 0;
#X restore 285 238 pd unpackButtons;
#N canvas 905 481 478 407 unpackButtons 0;
#X obj 17 135 sel 1;
#X obj 84 130 sel 1;
#X obj 162 137 loadbang;
#X msg 171 177 0;
#X obj 71 252 outlet;
#X obj 21 5 inlet;
#X msg 19 165 dec;
#X msg 85 168 inc;
#X obj 21 33 mrpeach/routeOSC /button;
#X obj 22 68 mrpeach/routeOSC /Minus /Plus;
#X obj 18 108 unpack f;
#X obj 85 104 unpack f;
#X obj 23 208 counter 1 128;
#X connect 0 0 6 0;
#X connect 1 0 7 0;
#X connect 2 0 3 0;
#X connect 3 0 12 0;
#X connect 5 0 8 0;
#X connect 6 0 12 0;
#X connect 7 0 12 0;
#X connect 8 0 9 0;
#X connect 9 0 10 0;
#X connect 9 1 11 0;
#X connect 10 0 0 0;
#X connect 11 0 1 0;
#X connect 12 0 4 0;
#X restore 403 238 pd unpackButtons;
#X floatatom 51 296 5 0 0 0 - - -;
#X floatatom 164 296 5 0 0 0 - - -;
#X floatatom 285 296 5 0 0 0 - - -;
#X floatatom 403 296 5 0 0 0 - - -;
#X obj 51 338 pgmout 1;
#X obj 164 338 pgmout 2;
#X obj 285 338 pgmout 3;
#X obj 403 338 pgmout 4;
#X connect 0 0 2 0;
#X connect 1 0 0 0;
#X connect 2 0 3 0;
#X connect 3 0 4 0;
#X connect 3 1 5 0;
#X connect 3 2 6 0;
#X connect 3 3 7 0;
#X connect 4 0 8 0;
#X connect 5 0 9 0;
#X connect 6 0 10 0;
#X connect 7 0 11 0;
#X connect 8 0 12 0;
#X connect 9 0 13 0;
#X connect 10 0 14 0;
#X connect 11 0 15 0;
